HIERARCHY
ROOT root
{
	OFFSET	0	13.1	24.9
	CHANNELS 6  Xposition Yposition Zposition Xrotation Yrotation Zrotation
	JOINT spine_1
	{
		OFFSET	0	9.99999	0
		CHANNELS 3  Xrotation Yrotation Zrotation
		JOINT spine_2
		{
			OFFSET	0	112	-10
			CHANNELS 3  Xrotation Yrotation Zrotation
			JOINT spine_3
			{
				OFFSET	0	206.5	19.3
				CHANNELS 3  Xrotation Yrotation Zrotation
				JOINT spine_4
				{
					OFFSET	0	110.4	14.6
					CHANNELS 3  Xrotation Yrotation Zrotation
					JOINT neck_1
					{
						OFFSET	0	71.8	-50.3
						CHANNELS 3  Xrotation Yrotation Zrotation
						JOINT neck_2
						{
							OFFSET	0	86.2	-25.8
							CHANNELS 3  Xrotation Yrotation Zrotation
							JOINT head_ee
							{
								OFFSET	0	179.8	-8.7
								CHANNELS 3  Xrotation Yrotation Zrotation
								End Site
								{
									OFFSET	1	0	0
								}
							}
						}
					}
					JOINT left_clavicle
					{
						OFFSET	-43.2	22.4	-70.8
						CHANNELS 3  Xrotation Yrotation Zrotation
						JOINT left_shoulder
						{
							OFFSET	-93.9	-5.79999	48.7
							CHANNELS 3  Xrotation Yrotation Zrotation
							JOINT left_elbow
							{
								OFFSET	-291.4	-30.8	15.2
								CHANNELS 3  Xrotation Yrotation Zrotation
								JOINT left_lowarm_twist
								{
									OFFSET	-110.7	-3.89999	13.6
									CHANNELS 3  Xrotation Yrotation Zrotation
									JOINT left_hand
									{
										OFFSET	-110.7	-3.89999	13.6
										CHANNELS 3  Xrotation Yrotation Zrotation
										JOINT left_ee
										{
											OFFSET	-80.8	-5.10001	12.1
											CHANNELS 3  Xrotation Yrotation Zrotation
											End Site
											{
												OFFSET	1	0	0
											}
										}
									}
								}
							}
						}
					}
					JOINT right_clavicle
					{
						OFFSET	43.2	22.4	-70.8
						CHANNELS 3  Xrotation Yrotation Zrotation
						JOINT right_shoulder
						{
							OFFSET	93.9	-5.79999	48.7
							CHANNELS 3  Xrotation Yrotation Zrotation
							JOINT right_elbow
							{
								OFFSET	291.4	-30.8	15.2
								CHANNELS 3  Xrotation Yrotation Zrotation
								JOINT right_lowarm_twist
								{
									OFFSET	110.7	-3.89999	13.6
									CHANNELS 3  Xrotation Yrotation Zrotation
									JOINT right_hand
									{
										OFFSET	110.7	-3.89999	13.6
										CHANNELS 3  Xrotation Yrotation Zrotation
										JOINT right_ee
										{
											OFFSET	80.8	-5.10001	12.1
											CHANNELS 3  Xrotation Yrotation Zrotation
											End Site
											{
												OFFSET	1	0	0
											}
										}
									}
								}
							}
						}
					}
				}
			}
		}
	}
	JOINT left_hip
	{
		OFFSET	-82.8	-127.5	0.300001
		CHANNELS 3  Xrotation Yrotation Zrotation
		JOINT left_knee
		{
			OFFSET	-28.2	-396.7	2.2
			CHANNELS 3  Xrotation Yrotation Zrotation
			JOINT left_ankle
			{
				OFFSET	-11.7	-411.3	35.4
				CHANNELS 3  Xrotation Yrotation Zrotation
				JOINT left_toes
				{
					OFFSET	0	-60	-88.6
					CHANNELS 3  Xrotation Yrotation Zrotation
					JOINT left_foot_ee
					{
						OFFSET	-22.5	-16.5	-42.2
						CHANNELS 3  Xrotation Yrotation Zrotation
						End Site
						{
							OFFSET	1	0	0
						}
					}
				}
			}
		}
	}
	JOINT right_hip
	{
		OFFSET	82.8	-127.5	0.300001
		CHANNELS 3  Xrotation Yrotation Zrotation
		JOINT right_knee
		{
			OFFSET	28.2	-396.7	2.2
			CHANNELS 3  Xrotation Yrotation Zrotation
			JOINT right_ankle
			{
				OFFSET	11.7	-411.3	35.4
				CHANNELS 3  Xrotation Yrotation Zrotation
				JOINT right_toes
				{
					OFFSET	0	-60	-88.6
					CHANNELS 3  Xrotation Yrotation Zrotation
					JOINT right_foot_ee
					{
						OFFSET	22.5	-16.5	-42.2
						CHANNELS 3  Xrotation Yrotation Zrotation
						End Site
						{
							OFFSET	1	0	0
						}
					}
				}
			}
		}
	}
}
MOTION
Frames: 16
Frame Time: 0.02
2482.0639448 770.574 -1510.94659805 -48.5741743746 84.5711325842 41.3769677868 3.82137 0.996459 2.92377 3.82577 0.808478 2.98119 3.86557 0.372162 3.06629 3.85346 0.851543 2.96918 -14.948 4.49423 -5.77174 -14.9792 12.0246 -3.97054 -0.0 0.0 -0.0 -4.93935 15.0706 -6.19307 -23.3057 -36.8153 72.1218 0.268102 -7.56535 0.0177259 -17.3943 -0.926232 2.01358 1.91876 5.07893 14.9013 -0.0 0.0 -0.0 8.93225 4.48842 -17.5561 -10.1557 26.406 -61.8713 3.32672 58.7366 -1.87245 5.28151 -0.155917 0.656375 2.55539 -13.9295 -22.3064 0.0 0.0 0.0 19.4896 8.08372 -1.30902 -44.4533 -0.77411 6.61014 10.6665 14.3035 -1.52227 -39.4851 0.0 0.0 -0.0 0.0 -0.0 17.9167 11.4728 -0.556603 -4.82082 -0.168252 -0.720504 7.16921 13.0221 1.10233 -24.3745 0.0 0.0 0.0 0.0 0.0 
2474.9204519 771.502 -1503.27790251 -79.2869574206 85.4460902128 72.3659064802 3.89217 0.809137 2.95601 3.89682 0.619486 3.00145 3.92675 0.185215 3.05906 3.91431 0.665794 2.99153 -15.3032 4.80024 -6.28897 -15.3428 12.8868 -4.31875 -0.0 0.0 -0.0 -5.16493 16.1327 -6.29466 -24.4885 -36.5046 71.3872 0.380685 -10.6796 0.0355821 -17.1588 -0.909688 1.98838 1.83801 5.53637 14.524 -0.0 0.0 -0.0 8.79288 5.10041 -17.2665 -8.08749 26.5699 -63.336 3.10538 56.9615 -1.68502 5.59868 -0.163345 0.69621 2.33939 -13.8811 -20.8238 0.0 0.0 0.0 21.1602 8.73636 -1.85143 -43.517 -0.705542 6.48347 14.3049 13.7365 -2.01275 -39.6089 0.0 0.0 -0.0 0.0 -0.0 17.5488 10.1146 -0.488652 -4.39382 -0.155806 -0.656154 8.74645 11.5589 1.3246 -24.509 0.0 0.0 0.0 0.0 0.0 
2444.06185244 775.259 -1500.18182536 -126.876828522 83.6125228864 120.629737896 4.11518 0.219839 3.27147 4.12113 0.0113353 3.27882 4.11811 -0.446398 3.24835 4.1034 0.0719348 3.27806 -16.2901 4.94103 -7.09869 -16.3372 13.5341 -4.92384 -0.0 0.0 -0.0 -5.07068 16.1362 -6.14186 -25.3433 -36.0175 69.8509 0.453518 -12.662 0.0503175 -16.8662 -0.88928 1.95696 1.83168 6.9639 15.0121 -0.0 0.0 -0.0 7.79872 6.17798 -15.1766 -8.01925 25.9312 -65.5147 3.2272 57.9601 -1.78772 6.9317 -0.192149 0.864053 1.8263 -12.3829 -16.8974 0.0 0.0 0.0 22.8263 9.55514 -3.31077 -35.6176 -0.211752 5.37508 21.9712 7.80935 -2.97239 -38.4324 0.0 0.0 -0.0 0.0 -0.0 16.2379 8.03863 -0.103394 -6.6467 -0.216049 -0.996623 13.3454 5.3601 1.92325 -23.1854 0.0 0.0 0.0 0.0 0.0 
2431.75883919 772.361 -1510.16512881 -128.475013403 83.5545634294 122.600329023 4.37042 0.254325 3.10162 4.37577 0.0565433 3.11151 4.37518 -0.364293 3.09064 4.36188 0.128145 3.10938 -15.7233 4.41057 -8.09084 -15.7044 13.155 -6.11605 -0.0 0.0 -0.0 -4.9828 15.3677 -6.1909 -25.0631 -36.2876 68.9101 0.601051 -16.5807 0.0875811 -17.5806 -0.939396 2.03348 2.01027 8.15127 16.6541 -0.0 0.0 -0.0 7.50955 4.85855 -14.5945 -9.20725 24.1897 -66.2819 3.34335 58.8631 -1.88667 6.65794 -0.186553 0.829529 1.45351 -9.77172 -13.5076 0.0 0.0 0.0 20.8573 12.0159 -2.82113 -21.1153 0.280716 3.20983 24.3322 7.34024 -3.25313 -38.5388 0.0 0.0 -0.0 0.0 -0.0 17.9527 7.66245 -0.963812 -10.7408 -0.291082 -1.62026 16.4015 0.686033 2.29796 -23.0657 0.0 0.0 0.0 0.0 0.0 
2355.28961126 767.987 -1528.53983942 -50.408935265 81.4042935304 44.7703361882 5.54303 0.510807 2.77971 5.54727 0.332963 2.80655 5.55924 0.00963294 2.8262 5.54839 0.455682 2.78927 -13.6742 4.55895 -5.66572 -13.6886 12.1769 -3.98439 -0.0 0.0 -0.0 -4.65234 16.4404 -5.39641 -25.3078 -34.7547 65.6264 0.658006 -18.0538 0.104536 -18.7407 -1.0228 2.15639 3.33971 9.76886 26.5136 -0.0 0.0 -0.0 5.95928 5.01876 -11.4088 -15.9912 28.2024 -73.9526 2.60321 52.199 -1.27544 6.87292 -0.190961 0.856638 1.08274 -6.01189 -9.63734 0.0 0.0 0.0 16.7396 13.5361 -3.36682 -22.888 0.250172 3.48013 21.5642 15.2518 -2.95332 -31.8273 0.0 0.0 -0.0 0.0 -0.0 15.283 7.49704 -2.53418 -13.0755 -0.313862 -1.97772 23.7442 6.61656 3.27246 -18.1082 0.0 0.0 0.0 0.0 0.0 
2355.21645829 767.987 -1527.94129001 -50.8034667557 81.4531281045 45.1693238253 5.54303 0.510807 2.77971 5.54727 0.332963 2.80655 5.55924 0.00963294 2.8262 5.54839 0.455682 2.78927 -13.6742 4.55895 -5.66572 -13.6886 12.1769 -3.98439 -0.0 0.0 -0.0 -4.65234 16.4404 -5.39641 -25.3078 -34.7547 65.6264 0.658006 -18.0538 0.104536 -18.7407 -1.0228 2.15639 3.33971 9.76886 26.5136 -0.0 0.0 -0.0 5.95928 5.01876 -11.4088 -15.9912 28.2024 -73.9526 2.60321 52.199 -1.27544 6.87292 -0.190961 0.856638 1.08274 -6.01189 -9.63734 0.0 0.0 0.0 16.7396 13.5361 -3.36682 -22.888 0.250172 3.48013 21.5642 15.2518 -2.95332 -31.8273 0.0 0.0 -0.0 0.0 -0.0 15.283 7.49704 -2.53418 -13.0755 -0.313862 -1.97772 23.7442 6.61656 3.27246 -18.1082 0.0 0.0 0.0 0.0 0.0 
2355.1410758 767.987 -1527.31739468 -51.2194599479 81.5035825435 45.5899607872 5.54303 0.510807 2.77971 5.54727 0.332963 2.80655 5.55924 0.00963294 2.8262 5.54839 0.455682 2.78927 -13.6742 4.55895 -5.66572 -13.6886 12.1769 -3.98439 -0.0 0.0 -0.0 -4.65234 16.4404 -5.39641 -25.3078 -34.7547 65.6264 0.658006 -18.0538 0.104536 -18.7407 -1.0228 2.15639 3.33971 9.76886 26.5136 -0.0 0.0 -0.0 5.95928 5.01876 -11.4088 -15.9912 28.2024 -73.9526 2.60321 52.199 -1.27544 6.87292 -0.190961 0.856638 1.08274 -6.01189 -9.63734 0.0 0.0 0.0 16.7396 13.5361 -3.36682 -22.888 0.250172 3.48013 21.5642 15.2518 -2.95332 -31.8273 0.0 0.0 -0.0 0.0 -0.0 15.283 7.49704 -2.53418 -13.0755 -0.313862 -1.97772 23.7442 6.61656 3.27246 -18.1082 0.0 0.0 0.0 0.0 0.0 
2354.84799096 767.987 -1524.81824944 -52.9352859418 81.700947894 47.3243776732 5.54303 0.510807 2.77971 5.54727 0.332963 2.80655 5.55924 0.00963294 2.8262 5.54839 0.455682 2.78927 -13.6742 4.55895 -5.66572 -13.6886 12.1769 -3.98439 -0.0 0.0 -0.0 -4.65234 16.4404 -5.39641 -25.3078 -34.7547 65.6264 0.658006 -18.0538 0.104536 -18.7407 -1.0228 2.15639 3.33971 9.76886 26.5136 -0.0 0.0 -0.0 5.95928 5.01876 -11.4088 -15.9912 28.2024 -73.9526 2.60321 52.199 -1.27544 6.87292 -0.190961 0.856638 1.08274 -6.01189 -9.63734 0.0 0.0 0.0 16.7396 13.5361 -3.36682 -22.888 0.250172 3.48013 21.5642 15.2518 -2.95332 -31.8273 0.0 0.0 -0.0 0.0 -0.0 15.283 7.49704 -2.53418 -13.0755 -0.313862 -1.97772 23.7442 6.61656 3.27246 -18.1082 0.0 0.0 0.0 0.0 0.0 
2354.54958089 767.987 -1522.13939138 -54.8645022801 81.9036344334 49.2735035089 5.54303 0.510807 2.77971 5.54727 0.332963 2.80655 5.55924 0.00963294 2.8262 5.54839 0.455682 2.78927 -13.6742 4.55895 -5.66572 -13.6886 12.1769 -3.98439 -0.0 0.0 -0.0 -4.65234 16.4404 -5.39641 -25.3078 -34.7547 65.6264 0.658006 -18.0538 0.104536 -18.7407 -1.0228 2.15639 3.33971 9.76886 26.5136 -0.0 0.0 -0.0 5.95928 5.01876 -11.4088 -15.9912 28.2024 -73.9526 2.60321 52.199 -1.27544 6.87292 -0.190961 0.856638 1.08274 -6.01189 -9.63734 0.0 0.0 0.0 16.7396 13.5361 -3.36682 -22.888 0.250172 3.48013 21.5642 15.2518 -2.95332 -31.8273 0.0 0.0 -0.0 0.0 -0.0 15.283 7.49704 -2.53418 -13.0755 -0.313862 -1.97772 23.7442 6.61656 3.27246 -18.1082 0.0 0.0 0.0 0.0 0.0 
2354.83085255 767.987 -1524.6682599 -53.0408171751 81.7125445873 47.4310241309 5.54303 0.510807 2.77971 5.54727 0.332963 2.80655 5.55924 0.00963294 2.8262 5.54839 0.455682 2.78927 -13.6742 4.55895 -5.66572 -13.6886 12.1769 -3.98439 -0.0 0.0 -0.0 -4.65234 16.4404 -5.39641 -25.3078 -34.7547 65.6264 0.658006 -18.0538 0.104536 -18.7407 -1.0228 2.15639 3.33971 9.76886 26.5136 -0.0 0.0 -0.0 5.95928 5.01876 -11.4088 -15.9912 28.2024 -73.9526 2.60321 52.199 -1.27544 6.87292 -0.190961 0.856638 1.08274 -6.01189 -9.63734 0.0 0.0 0.0 16.7396 13.5361 -3.36682 -22.888 0.250172 3.48013 21.5642 15.2518 -2.95332 -31.8273 0.0 0.0 -0.0 0.0 -0.0 15.283 7.49704 -2.53418 -13.0755 -0.313862 -1.97772 23.7442 6.61656 3.27246 -18.1082 0.0 0.0 0.0 0.0 0.0 
2354.76123238 767.987 -1524.05430793 -53.4758410977 81.7597114968 47.8706123859 5.54303 0.510807 2.77971 5.54727 0.332963 2.80655 5.55924 0.00963294 2.8262 5.54839 0.455682 2.78927 -13.6742 4.55895 -5.66572 -13.6886 12.1769 -3.98439 -0.0 0.0 -0.0 -4.65234 16.4404 -5.39641 -25.3078 -34.7547 65.6264 0.658006 -18.0538 0.104536 -18.7407 -1.0228 2.15639 3.33971 9.76886 26.5136 -0.0 0.0 -0.0 5.95928 5.01876 -11.4088 -15.9912 28.2024 -73.9526 2.60321 52.199 -1.27544 6.87292 -0.190961 0.856638 1.08274 -6.01189 -9.63734 0.0 0.0 0.0 16.7396 13.5361 -3.36682 -22.888 0.250172 3.48013 21.5642 15.2518 -2.95332 -31.8273 0.0 0.0 -0.0 0.0 -0.0 15.283 7.49704 -2.53418 -13.0755 -0.313862 -1.97772 23.7442 6.61656 3.27246 -18.1082 0.0 0.0 0.0 0.0 0.0 
2353.99903013 767.987 -1516.75573884 -59.03263044 82.2805216084 53.4815907043 5.54303 0.510807 2.77971 5.54727 0.332963 2.80655 5.55924 0.00963294 2.8262 5.54839 0.455682 2.78927 -13.6742 4.55895 -5.66572 -13.6886 12.1769 -3.98439 -0.0 0.0 -0.0 -4.65234 16.4404 -5.39641 -25.3078 -34.7547 65.6264 0.658006 -18.0538 0.104536 -18.7407 -1.0228 2.15639 3.33971 9.76886 26.5136 -0.0 0.0 -0.0 5.95928 5.01876 -11.4088 -15.9912 28.2024 -73.9526 2.60321 52.199 -1.27544 6.87292 -0.190961 0.856638 1.08274 -6.01189 -9.63734 0.0 0.0 0.0 16.7396 13.5361 -3.36682 -22.888 0.250172 3.48013 21.5642 15.2518 -2.95332 -31.8273 0.0 0.0 -0.0 0.0 -0.0 15.283 7.49704 -2.53418 -13.0755 -0.313862 -1.97772 23.7442 6.61656 3.27246 -18.1082 0.0 0.0 0.0 0.0 0.0 
2353.62346097 767.987 -1512.65339246 -62.4748515451 82.5374660975 56.9542178787 5.54303 0.510807 2.77971 5.54727 0.332963 2.80655 5.55924 0.00963294 2.8262 5.54839 0.455682 2.78927 -13.6742 4.55895 -5.66572 -13.6886 12.1769 -3.98439 -0.0 0.0 -0.0 -4.65234 16.4404 -5.39641 -25.3078 -34.7547 65.6264 0.658006 -18.0538 0.104536 -18.7407 -1.0228 2.15639 3.33971 9.76886 26.5136 -0.0 0.0 -0.0 5.95928 5.01876 -11.4088 -15.9912 28.2024 -73.9526 2.60321 52.199 -1.27544 6.87292 -0.190961 0.856638 1.08274 -6.01189 -9.63734 0.0 0.0 0.0 16.7396 13.5361 -3.36682 -22.888 0.250172 3.48013 21.5642 15.2518 -2.95332 -31.8273 0.0 0.0 -0.0 0.0 -0.0 15.283 7.49704 -2.53418 -13.0755 -0.313862 -1.97772 23.7442 6.61656 3.27246 -18.1082 0.0 0.0 0.0 0.0 0.0 
2347.87638617 765.174 -1518.60407551 -49.8252718676 81.1801006336 44.7732957258 5.56302 0.538483 2.80396 5.56732 0.359042 2.83251 5.58064 0.0336689 2.85496 5.56959 0.483953 2.81388 -14.3608 4.34208 -3.80128 -14.4092 10.5874 -2.20839 -0.0 0.0 -0.0 -4.48764 16.6087 -5.09407 -25.3244 -34.894 64.8946 0.720727 -19.6479 0.124803 -19.001 -1.04186 2.18374 3.22975 9.50109 25.6294 -0.0 0.0 -0.0 5.99648 5.41999 -11.4708 -17.2459 28.8 -75.0685 2.33804 49.1852 -1.07019 7.78496 -0.208533 0.971816 1.20335 -5.86219 -10.3818 0.0 0.0 0.0 16.108 12.6119 -3.4573 -22.7724 0.252417 3.46254 21.762 18.8134 -3.01064 -31.4726 0.0 0.0 -0.0 0.0 -0.0 14.8825 6.26824 -3.5232 -11.7776 -0.302996 -1.77889 24.2289 6.07284 3.32309 -16.4802 0.0 0.0 0.0 0.0 0.0 
2333.90505081 763.25 -1536.01943639 -36.5856418126 77.4574623576 31.687074133 5.92976 0.351145 2.60035 5.9335 0.185024 2.6174 5.93777 -0.0985071 2.62208 5.92831 0.316695 2.60476 -14.1871 4.47801 -1.45547 -14.2499 9.42991 0.0462007 -0.0 0.0 -0.0 -4.31914 16.7836 -4.78608 -24.5379 -34.953 62.7041 0.834829 -22.4674 0.165813 -19.6173 -1.08748 2.24816 3.35927 10.2389 26.8086 -0.0 0.0 -0.0 5.89201 6.44245 -11.2178 -18.9161 30.1558 -75.766 2.01059 44.8797 -0.83041 8.57049 -0.222196 1.07123 1.005 -6.574 -9.33946 0.0 0.0 0.0 14.1377 12.9747 -3.32388 -20.9941 0.282497 3.19133 26.0415 18.7465 -3.52973 -31.0638 0.0 0.0 -0.0 0.0 -0.0 14.3416 6.37698 -4.07485 -11.6214 -0.301385 -1.75498 26.9112 6.06875 3.63519 -15.3433 0.0 0.0 0.0 0.0 0.0 
2332.56680842 763.25 -1524.98708223 -40.5455864465 78.5148032209 35.7354495195 5.92976 0.351145 2.60035 5.9335 0.185024 2.6174 5.93777 -0.0985071 2.62208 5.92831 0.316695 2.60476 -14.1871 4.47801 -1.45547 -14.2499 9.42991 0.0462007 -0.0 0.0 -0.0 -4.31914 16.7836 -4.78608 -24.5379 -34.953 62.7041 0.834829 -22.4674 0.165813 -19.6173 -1.08748 2.24816 3.35927 10.2389 26.8086 -0.0 0.0 -0.0 5.89201 6.44245 -11.2178 -18.9161 30.1558 -75.766 2.01059 44.8797 -0.83041 8.57049 -0.222196 1.07123 1.005 -6.574 -9.33946 0.0 0.0 0.0 14.1377 12.9747 -3.32388 -20.9941 0.282497 3.19133 26.0415 18.7465 -3.52973 -31.0638 0.0 0.0 -0.0 0.0 -0.0 14.3416 6.37698 -4.07485 -11.6214 -0.301385 -1.75498 26.9112 6.06875 3.63519 -15.3433 0.0 0.0 0.0 0.0 0.0 
